<?xml version="1.0" encoding="utf-8"?>
<!-- Generator: Adobe Illustrator 19.1.0, SVG Export Plug-In . SVG Version: 6.00 Build 0)  -->
<svg version="1.1" id="Layer_1" xmlns="http://www.w3.org/2000/svg" xmlns:xlink="http://www.w3.org/1999/xlink" x="0px" y="0px"
	 viewBox="0 0 150 150" style="enable-background:new 0 0 150 150;" xml:space="preserve">

<g>
	<path class="st0" d="M69.8,89.5l-47.3,47.3c-4.9,4.9-1.4,13.2,5.5,13.2h94.7c6.9,0,10.3-8.3,5.5-13.2L80.7,89.5
		C77.7,86.6,72.8,86.6,69.8,89.5z"/>
	<path class="st0" d="M122.6,0H28c-6.9,0-10.3,8.3-5.5,13.2l47.3,47.3c3,3,7.9,3,10.8,0l47.3-47.3C132.9,8.3,129.4,0,122.6,0z"/>
	<path class="st0" d="M0,27.9v94.9c0,6.9,8.3,10.3,13.2,5.5l47.5-47.5c3-3,3-7.9,0-10.8L13.2,22.4C8.3,17.5,0,21,0,27.9z"/>
	<path class="st0" d="M150,122.8V27.9c0-6.9-8.3-10.3-13.2-5.5L89.4,69.9c-3,3-3,7.9,0,10.8l47.5,47.5
		C141.7,133.1,150,129.6,150,122.8z"/>
</g>


<defs>
    <pattern id="image" x="0" y="0" patternUnits="userSpaceOnUse" height="1" width="1">
      <image x="0" y="0" xlink:href="menu-pattern.png"></image>
    </pattern>
</defs>
<circle id='top' cx="180" cy="120" r="80" fill="url(#image)"/>


</svg>
