<?xml version="1.0" encoding="utf-8"?>
<!-- Generator: Adobe Illustrator 19.2.0, SVG Export Plug-In . SVG Version: 6.00 Build 0)  -->
<svg version="1.1" id="Layer_1" xmlns="http://www.w3.org/2000/svg" xmlns:xlink="http://www.w3.org/1999/xlink" x="0px" y="0px"
	 viewBox="0 0 90 90" style="enable-background:new 0 0 90 90;" xml:space="preserve">
<style type="text/css">
	.st0{fill:#52B848;}
	.st1{fill:#FFFFFF;}
	.st2{fill:#010101;}
</style>
<g>
	<g>
		<g>
			<path class="st0" d="M23,86.3c4.3-0.5,9.2-1.4,14.2-2.9c-7.5-0.5-14.9-3.6-20.7-9.3c-5.7-5.7-8.9-13.1-9.3-20.7
				c-1.5,5.1-2.4,10-2.9,14.3c-1,8.4-0.7,15.6-0.5,19.1C7.3,87,14.5,87.3,23,86.3z"/>
			<path class="st0" d="M67.6,4.2c-4.3,0.5-9.2,1.4-14.2,2.9c7.5,0.5,14.9,3.6,20.7,9.3c5.7,5.7,8.9,13.1,9.3,20.7
				c1.5-5.1,2.4-10,2.9-14.3c1-8.4,0.7-15.6,0.5-19.1C83.3,3.4,76.1,3.2,67.6,4.2z"/>
		</g>
	</g>
	<g>
		<g>
			<g>
				<path class="st1" d="M67.6,86.3c-4.3-0.5-9.2-1.4-14.2-2.9c7.5-0.5,14.9-3.6,20.7-9.3c5.7-5.7,8.9-13.1,9.3-20.7
					c1.5,5.1,2.4,10,2.9,14.3c1,8.4,0.7,15.6,0.5,19.1C83.3,87,76.1,87.3,67.6,86.3z"/>
			</g>
			<path class="st1" d="M23,4.2c4.3,0.5,9.2,1.4,14.2,2.9c-7.5,0.5-14.9,3.6-20.7,9.3c-5.7,5.7-8.9,13.1-9.3,20.7
				C5.6,32,4.7,27,4.2,22.8c-1-8.4-0.7-15.6-0.5-19.1C7.3,3.4,14.5,3.2,23,4.2z"/>
		</g>
	</g>
	<circle class="st0" cx="44.4" cy="45.6" r="28.4"/>
	<path class="st2" d="M44.4,29.6c-2,0-3.9,0.3-5.6,1c1.5,1,2.4,2.7,2.4,4.6c0,3.1-2.5,5.6-5.6,5.6c-2.3,0-4.3-1.4-5.2-3.5
		c-1.6,2.5-2.5,5.6-2.5,8.8c0,9.1,7.4,16.5,16.5,16.5c9.1,0,16.5-7.4,16.5-16.5C60.9,37,53.5,29.6,44.4,29.6z"/>
</g>
</svg>
