<?xml version="1.0" encoding="utf-8"?>
<!-- Generator: Adobe Illustrator 19.2.0, SVG Export Plug-In . SVG Version: 6.00 Build 0)  -->
<svg version="1.1" id="Layer_1" xmlns="http://www.w3.org/2000/svg" xmlns:xlink="http://www.w3.org/1999/xlink" x="0px" y="0px"
	 viewBox="0 0 150 109" style="enable-background:new 0 0 150 109;" xml:space="preserve">
<style type="text/css">
	.st0{fill:#FFFFFF;}
	.st1{fill:#30C63F;}
</style>
<g>
	<path class="st0" d="M89.5,59c-0.9-0.7-1.5-0.4-1.2,0.8c0,0,0.6,3.8,3.8,6.4c3.2,2.6,7,2.4,7,2.4c1.2,0,1.4-0.6,0.5-1.3L89.5,59z"
		/>
	<path class="st0" d="M113.8,55.7L96.7,41.9c-1.2-1-2.9-0.8-3.9,0.4c-1,1.2-0.8,2.9,0.4,3.9L110.4,60c1.2,1,2.9,0.8,3.9-0.4
		C115.2,58.4,115,56.7,113.8,55.7z M112.3,58c-0.5,0.6-1.2,0.8-1.6,0.5l-3.5-2.8c-0.4-0.3-0.4-1.1,0.1-1.7c0.5-0.6,1.2-0.8,1.6-0.5
		l3.5,2.8C112.8,56.6,112.8,57.4,112.3,58z"/>
	<path class="st0" d="M110.1,58.9L94.3,46.2c-1.2-1-2.9-0.8-3.9,0.4c-1,1.2-0.8,2.9,0.4,3.9l15.8,12.7c1.2,1,2.9,0.8,3.9-0.4
		C111.5,61.6,111.3,59.9,110.1,58.9z M108.8,61.4c-0.5,0.6-1.2,0.8-1.6,0.5l-3.6-2.9c-0.4-0.3-0.4-1.1,0.1-1.7
		c0.5-0.6,1.2-0.8,1.6-0.5l3.6,2.9C109.3,60.1,109.3,60.8,108.8,61.4z"/>
	<path class="st0" d="M105.7,61.6L92.7,51.1c-1.2-1-2.9-0.8-3.9,0.4c-1,1.2-0.8,2.9,0.4,3.9l13.1,10.5c1.2,1,2.9,0.8,3.9-0.4
		C107.1,64.3,106.9,62.5,105.7,61.6z M104.8,64.4c-0.5,0.6-1.2,0.8-1.6,0.5l-2.9-2.4c-0.4-0.3-0.4-1.1,0.1-1.7
		c0.5-0.6,1.2-0.8,1.6-0.5l2.9,2.4C105.4,63.1,105.3,63.9,104.8,64.4z"/>
	<g>
		<path class="st0" d="M17.9,36.3c8.7,0,13.8,4.3,13.8,12c0,8.1-5,12.7-13.8,12.7h-5.3v9.1h-10V36.3H17.9z M12.6,53.3h4.8
			c3,0,4.7-1.6,4.7-4.7c0-2.9-1.7-4.6-4.7-4.6h-4.8V53.3z"/>
		<path class="st0" d="M35.5,70.1V36.3h10v33.8H35.5z"/>
		<path class="st0" d="M84.8,70.1H72.8l-6.4-9.6L60,70.1H48.3l12-17.2L49.1,36.3h11.7l5.6,8.8l5.6-8.8h11.8l-11,16.2L84.8,70.1z"/>
		<path class="st1" d="M30.5,78l-3.7,7.7c-3.5-2-8.4-3.8-11.2-3.8c-1.7,0-2.8,0.6-2.8,1.8c0,5,17.7,2,17.7,14.2
			c0,7.2-6.4,10.6-13.9,10.6c-5.7,0-12-2-16.3-5.4L4,95.6c3.5,2.9,9.1,5.2,12.6,5.2c2.1,0,3.5-0.7,3.5-2.3c0-5.1-17.7-1.9-17.7-13.8
			c0-6.5,5.5-10.7,14-10.7C21.6,74.1,26.9,75.6,30.5,78z"/>
		<path class="st1" d="M44.2,82.2v5.3h16v7.7h-16v5.4h18.1v7.7H34.1V74.5h27.6v7.7H44.2z"/>
		<path class="st1" d="M90.6,108.3L76.3,89.5v18.8h-9.2V74.5h8.6L90,93.4V74.5h9.2v33.8H90.6z"/>
		<path class="st1" d="M132.9,78l-3.7,7.7c-3.5-2-8.4-3.8-11.2-3.8c-1.7,0-2.8,0.6-2.8,1.8c0,5,17.7,2,17.7,14.2
			c0,7.2-6.4,10.6-13.9,10.6c-5.7,0-12-2-16.3-5.4l3.8-7.6c3.5,2.9,9.1,5.2,12.6,5.2c2.1,0,3.5-0.7,3.5-2.3
			c0-5.1-17.7-1.9-17.7-13.8c0-6.5,5.5-10.7,14-10.7C123.9,74.1,129.2,75.6,132.9,78z"/>
	</g>
	<g>
		<path class="st1" d="M147.7,22.3L121.9,1.5c-2.1-1.7-5.3-1.4-7,0.8L94.2,28c-1.7,2.1-1.4,5.3,0.8,7l25.7,20.8
			c2.1,1.7,5.3,1.4,7-0.8l20.8-25.7C150.2,27.2,149.8,24,147.7,22.3z M111.5,29.1l-4.6-9c-0.3-0.6-0.2-1.3,0.2-1.8
			c0.4-0.5,1-0.7,1.6-0.6l10.2,2.2c0.9,0.2,1.3,1.3,0.7,2.1l-0.4,0.5c-0.3,0.4-0.8,0.6-1.3,0.4l-4.9-1.2c-0.8-0.2-1.5,0.7-1.1,1.4
			l2.3,4.2c0.3,0.5,0.2,1-0.1,1.4l-0.4,0.5C113,30,111.9,29.9,111.5,29.1z M116.1,35.2c-0.6,0.4-1.4,0.3-1.9-0.1l-0.4-0.3
			c-0.9-0.7-0.8-2.2,0.2-2.8l13.3-8c0.6-0.4,1.4-0.3,1.9,0.1l0.4,0.3c0.9,0.7,0.8,2.2-0.2,2.8L116.1,35.2z M135.5,41.3
			c-0.4,0.5-1.1,0.7-1.7,0.5l-9.8-2.6c-0.9-0.2-1.2-1.3-0.7-2l0.4-0.5c0.3-0.4,0.9-0.6,1.4-0.4l4.6,1.4c0.8,0.2,1.5-0.6,1.2-1.4
			l-2.2-4.5c-0.2-0.4-0.2-1,0.1-1.4l0.4-0.5c0.6-0.7,1.8-0.6,2.2,0.3l4.3,9.5C136,40.1,135.9,40.8,135.5,41.3z"/>
	</g>
</g>
</svg>
