<?xml version="1.0" encoding="utf-8"?>
<!-- Generator: Adobe Illustrator 19.2.0, SVG Export Plug-In . SVG Version: 6.00 Build 0)  -->
<svg version="1.1" id="Layer_1" xmlns="http://www.w3.org/2000/svg" xmlns:xlink="http://www.w3.org/1999/xlink" x="0px" y="0px"
	 viewBox="0 0 360 90" style="enable-background:new 0 0 360 90;" xml:space="preserve">
<style type="text/css">
	.st0{fill:#FFFFFF;}
	.st1{font-family:'Montserrat-Bold';}
	.st2{font-size:75.637px;}
	.st3{fill:#52B848;}
	.st4{fill:#010101;}
</style>
<g>
	<text transform="matrix(1 0 0 1 62.1819 66.0081)"><tspan x="0" y="0" class="st0 st1 st2">Pix</tspan><tspan x="120.8" y="0" class="st3 st1 st2">sens</tspan></text>
	<g>
		<g>
			<path class="st3" d="M16.7,67c2.8-0.3,6-0.9,9.2-1.9c-4.9-0.3-9.7-2.3-13.5-6.1c-3.7-3.7-5.8-8.6-6.1-13.5
				c-1,3.3-1.6,6.5-1.9,9.3C3.9,60.4,4,65.1,4.2,67.3C6.5,67.5,11.2,67.7,16.7,67z"/>
			<path class="st3" d="M45.9,13.4c-2.8,0.3-6,0.9-9.2,1.9c4.9,0.3,9.7,2.3,13.5,6.1c3.7,3.7,5.8,8.6,6.1,13.5
				c1-3.3,1.6-6.5,1.9-9.3c0.6-5.5,0.5-10.2,0.3-12.4C56.1,13,51.4,12.8,45.9,13.4z"/>
		</g>
	</g>
	<g>
		<g>
			<g>
				<path class="st0" d="M45.9,67c-2.8-0.3-6-0.9-9.2-1.9c4.9-0.3,9.7-2.3,13.5-6.1c3.7-3.7,5.8-8.6,6.1-13.5c1,3.3,1.6,6.5,1.9,9.3
					c0.6,5.5,0.5,10.2,0.3,12.4C56.1,67.5,51.4,67.7,45.9,67z"/>
			</g>
			<path class="st0" d="M16.7,13.4c2.8,0.3,6,0.9,9.2,1.9c-4.9,0.3-9.7,2.3-13.5,6.1C8.8,25.2,6.7,30,6.4,34.9
				c-1-3.3-1.6-6.5-1.9-9.3C3.9,20.1,4,15.4,4.2,13.1C6.5,13,11.2,12.8,16.7,13.4z"/>
		</g>
	</g>
	<circle class="st3" cx="30.9" cy="40.6" r="18.5"/>
	<path class="st4" d="M30.7,30c-1.3,0-2.5,0.2-3.7,0.6c1,0.7,1.6,1.8,1.6,3c0,2-1.6,3.6-3.6,3.6c-1.5,0-2.8-0.9-3.4-2.3
		c-1,1.7-1.7,3.6-1.7,5.7c0,5.9,4.8,10.8,10.8,10.8c5.9,0,10.8-4.8,10.8-10.8C41.5,34.8,36.7,30,30.7,30z"/>
</g>
</svg>
